<svg height="343.708pt" viewBox="0 0 343.708 343.708" width="343.708pt" xmlns="http://www.w3.org/2000/svg"><path d="m171.855469 0c-94.761719 0-171.855469 77.09375-171.855469 171.855469 0 94.757812 77.09375 171.851562 171.855469 171.851562 94.757812 0 171.851562-77.09375 171.851562-171.851562 0-94.761719-77.09375-171.855469-171.851562-171.855469zm0 331.707031c-88.144531 0-159.855469-71.710937-159.855469-159.851562 0-88.144531 71.710938-159.855469 159.855469-159.855469 88.140625 0 159.851562 71.710938 159.851562 159.855469 0 88.140625-71.710937 159.851562-159.851562 159.851562zm0 0"/><path d="m169.726562 104.191406c-39.71875-.003906-71.917968 32.195313-71.917968 71.914063s32.199218 71.917969 71.917968 71.917969 71.917969-32.199219 71.917969-71.917969c-.046875-39.699219-32.21875-71.871094-71.917969-71.914063zm0 131.832032c-33.089843 0-59.917968-26.824219-59.917968-59.917969 0-33.089844 26.828125-59.917969 59.917968-59.917969 33.09375 0 59.917969 26.828125 59.917969 59.917969-.039062 33.078125-26.839843 59.878906-59.917969 59.917969zm0 0"/><path d="m171.855469 282.800781c-60.054688-.117187-108.707031-48.769531-108.824219-108.824219 0-3.3125-2.683594-6-6-6-3.3125 0-6 2.6875-6 6 .125 66.675782 54.144531 120.699219 120.824219 120.824219 3.3125 0 6-2.683593 6-6 0-3.3125-2.6875-6-6-6zm0 0"/><path d="m171.855469 53.160156c-3.316407 0-6 2.683594-6 6 0 3.3125 2.683593 6 6 6 60.050781.113282 108.707031 48.769532 108.820312 108.824219 0 3.3125 2.683594 6 6 6 3.3125 0 6-2.6875 6-6-.125-66.679687-54.144531-120.699219-120.820312-120.824219zm0 0"/><path d="m169.726562 151.0625c-13.832031 0-25.042968 11.210938-25.042968 25.042969s11.210937 25.046875 25.042968 25.046875c13.832032 0 25.046876-11.214844 25.046876-25.046875-.015626-13.824219-11.21875-25.027344-25.046876-25.042969zm0 38.089844c-7.203124 0-13.042968-5.839844-13.042968-13.046875 0-7.203125 5.839844-13.042969 13.042968-13.042969 7.207032 0 13.046876 5.839844 13.046876 13.042969-.007813 7.203125-5.84375 13.039062-13.046876 13.046875zm0 0"/></svg>