<?xml version="1.0" encoding="iso-8859-1"?>
<!-- Generator: Adobe Illustrator 19.0.0, SVG Export Plug-In . SVG Version: 6.00 Build 0)  -->
<svg version="1.1" id="Capa_1" xmlns="http://www.w3.org/2000/svg" xmlns:xlink="http://www.w3.org/1999/xlink" x="0px" y="0px"
	 viewBox="0 0 218.463 218.463" style="enable-background:new 0 0 218.463 218.463;" xml:space="preserve">
<g>
	<g>
		<path d="M187.333,98.502l-23.607-3.879c-1.853-0.295-3.615,0.954-3.922,2.814s0.954,3.615,2.814,3.922l23.873,3.924
			c0.183,0.029,0.367,0.044,0.553,0.044c11.8,0,21.4,7.929,21.4,17.676v13.53h-66.56c-1.884,0-3.413,1.529-3.413,3.413
			s1.529,3.413,3.413,3.413h69.973c1.886,0,3.413-1.527,3.415-3.413v-16.944C215.273,109.575,202.765,98.635,187.333,98.502z"/>
	</g>
</g>
<g>
	<g>
		<path d="M137.125,97.437c-0.305-1.859-2.06-3.11-3.922-2.814l-23.6,3.878c-13.356,0.116-24.861,8.398-27.416,19.779
			c-0.411,1.84,0.744,3.668,2.584,4.079c0.253,0.056,0.503,0.084,0.751,0.084c1.562,0,2.97-1.079,3.328-2.666
			c1.879-8.373,10.728-14.45,21.041-14.45c0.184,0,0.37-0.014,0.553-0.044l23.866-3.922
			C136.169,101.052,137.431,99.297,137.125,97.437z"/>
	</g>
</g>
<g>
	<g>
		<path d="M164.072,75.093h-30.72c-1.884,0-3.413,1.529-3.413,3.413v17.067c0,1.348,0.795,2.572,2.028,3.118
			c5.243,2.331,10.994,3.497,16.746,3.497c5.753,0,11.505-1.166,16.746-3.497c1.234-0.546,2.028-1.77,2.028-3.118V78.507
			C167.485,76.623,165.956,75.093,164.072,75.093z M160.658,93.274c-7.62,2.797-16.273,2.797-23.893,0V81.92h23.893V93.274z"/>
	</g>
</g>
<g>
	<g>
		<path d="M150.418,0h-3.413c-18.821,0-34.133,15.312-34.133,34.133v30.266c0,9.661,7.861,17.521,17.522,17.521h36.637
			c9.661,0,17.521-7.859,17.521-17.521V34.133C184.552,15.312,169.239,0,150.418,0z M177.727,64.399
			c0,5.896-4.797,10.694-10.696,10.694h-36.637c-5.898,0-10.696-4.797-10.696-10.694V34.133c0-15.056,12.25-27.307,27.307-27.307
			h3.415c15.056,0,27.307,12.25,27.307,27.307V64.399z"/>
	</g>
</g>
<g>
	<g>
		<path d="M150.183,162.55c-0.717-2.654-1.401-5.243-2.068-7.762c-6.182-23.333-10.646-40.192-22.473-43.694
			c-4.668-1.382-14.382-4.262-24.863,1.958c-8.24,4.886-35.842,4.886-44.081,0c-10.481-6.217-20.195-3.342-24.888-1.952
			c-11.802,3.495-16.266,20.354-22.448,43.687c-0.666,2.519-1.352,5.108-2.068,7.762c-5.495,20.342-5.468,39.685,0.07,49.277
			c1.966,3.405,4.547,5.552,7.67,6.381c0.643,0.171,1.287,0.253,1.93,0.253c7.434,0,14.956-10.89,22.243-21.448
			c3.115-4.509,6.333-9.172,8.074-10.522c1.208-0.937,5.823-3.096,22.596-2.865l20.871-0.015c14.28,0.065,18.355,2.036,19.444,2.881
			c1.741,1.35,4.96,6.013,8.074,10.522c7.926,11.476,16.133,23.351,24.178,21.197c3.123-0.829,5.704-2.976,7.67-6.381
			C155.651,202.235,155.678,182.892,150.183,162.55z M144.204,208.408c-1.026,1.775-2.207,2.852-3.511,3.198
			c-3.406,0.858-12.802-12.679-16.807-18.478c-3.874-5.61-6.932-10.04-9.506-12.037c-2.341-1.816-7.335-4.239-23.617-4.313
			l-20.84,0.015c-14.073-0.2-22.849,1.215-26.825,4.299c-2.574,1.997-5.632,6.427-9.506,12.037
			c-4.007,5.801-13.362,19.366-16.807,18.478c-1.306-0.346-2.485-1.423-3.511-3.198c-3.831-6.637-5.13-22.842,0.608-44.083
			c0.72-2.662,1.41-5.265,2.079-7.793c5.402-20.383,9.665-36.483,17.813-38.897c2.166-0.642,5.337-1.58,9.035-1.58
			c3.18,0,6.748,0.693,10.407,2.862c10.257,6.086,40.789,6.086,51.048,0c7.916-4.695,15.415-2.476,19.468-1.275
			c8.122,2.405,12.387,18.505,17.787,38.888c0.669,2.528,1.359,5.129,2.079,7.793C149.335,185.566,148.036,201.771,144.204,208.408z
			"/>
	</g>
</g>
<g>
	<g>
		<rect x="41.186" y="133.123" width="6.827" height="27.307"/>
	</g>
</g>
<g>
	<g>
		<rect x="30.946" y="143.363" width="27.307" height="6.827"/>
	</g>
</g>
<g>
	<g>
		<path d="M111.165,133.12c-8.469,0-15.36,6.89-15.36,15.36c0,8.47,6.891,15.36,15.36,15.36c8.47,0,15.36-6.89,15.36-15.36
			C126.525,140.01,119.633,133.12,111.165,133.12z M111.165,157.013c-4.705,0-8.533-3.828-8.533-8.533
			c0-4.705,3.828-8.533,8.533-8.533s8.533,3.828,8.533,8.533C119.698,153.185,115.87,157.013,111.165,157.013z"/>
	</g>
</g>
<g>
</g>
<g>
</g>
<g>
</g>
<g>
</g>
<g>
</g>
<g>
</g>
<g>
</g>
<g>
</g>
<g>
</g>
<g>
</g>
<g>
</g>
<g>
</g>
<g>
</g>
<g>
</g>
<g>
</g>
</svg>
