<?xml version="1.0" encoding="iso-8859-1"?>
<!-- Generator: Adobe Illustrator 19.0.0, SVG Export Plug-In . SVG Version: 6.00 Build 0)  -->
<svg version="1.1" id="Capa_1" xmlns="http://www.w3.org/2000/svg" xmlns:xlink="http://www.w3.org/1999/xlink" x="0px" y="0px"
	 viewBox="0 0 512 512" style="enable-background:new 0 0 512 512;" xml:space="preserve">
<path style="fill:#005EAA;" d="M512,256c0,6.604-0.251,13.155-0.742,19.634c-0.763,10.062-2.1,19.947-4.002,29.654
	c-2.017,10.376-4.671,20.532-7.91,30.417c-1.463,4.493-3.062,8.923-4.765,13.302C457.362,444.406,364.575,512,256,512
	S54.638,444.406,17.418,349.006c-1.703-4.378-3.291-8.808-4.765-13.302c-2.226-6.823-4.18-13.761-5.841-20.814
	c-0.408-1.724-0.805-3.459-1.17-5.204c-1.463-6.834-2.654-13.782-3.553-20.814C0.711,278.11,0,267.139,0,256
	c0-1.108,0.01-2.226,0.021-3.333c0.219-17.408,2.184-34.398,5.716-50.803c1.714-7.973,3.803-15.82,6.248-23.5
	C44.857,74.93,141.678,0,256,0C397.385,0,512,114.615,512,256z"/>
<path style="fill:#F2F2F2;" d="M483.641,194.006c-6.322-18.714-23.845-31.274-43.604-31.274c-19.749,0-37.272,12.56-43.593,31.263
	l-17.523,51.796v-10.689c0-1.191-0.167-2.361-0.46-3.469c0.293-1.097,0.46-2.267,0.46-3.459v-46.832
	c0-7.346-5.956-13.302-13.302-13.302h-72.37c-14.796,0-28.223,5.925-38.055,15.517v-1.933c0-7.346-5.956-13.291-13.302-13.291
	h-74.418c-16.133,0-30.647,7.043-40.636,18.213v-4.629c0-7.346-5.956-13.302-13.302-13.302H45.756
	c-12.403,0-23.991,3.574-33.771,9.749C4.2,202.856,0,228.937,0,256c0,32.81,6.175,64.178,17.418,93.006h45.965
	c23.51,0,44.074-12.852,55.045-31.901c8.84,18.181,27.502,30.741,49.048,30.741h74.418c7.346,0,13.302-5.945,13.302-13.291v-1.066
	c9.832,9.592,23.259,15.517,38.055,15.517h118.721c2.832,0,5.517-0.899,7.722-2.466c2.236,1.714,5.036,2.738,8.077,2.738h57.323
	c0.92,0,1.808-0.094,2.664-0.272h6.823c8.986-23.03,14.723-47.668,16.677-73.373L483.641,194.006z"/>
<path style="fill:#0087D2;" d="M42.433,232.072c0,1.829,1.484,3.323,3.323,3.323h17.627c27.658,0,50.155,22.497,50.155,50.155
	s-22.497,50.155-50.155,50.155h-50.73c-4.921-15.047-8.495-30.699-10.564-46.832h61.294c1.839,0,3.323-1.484,3.323-3.323
	c0-1.829-1.484-3.323-3.323-3.323H45.756c-20.323,0-37.857-12.142-45.735-29.56c0.219-17.408,2.184-34.398,5.716-50.803
	c9.164-12.11,23.698-19.947,40.02-19.947h67.783v46.832H45.756C43.917,228.749,42.433,230.243,42.433,232.072z"/>
<path style="fill:#FFFFFF;" d="M21.619,232.072c0,13.312,10.825,24.137,24.137,24.137h17.627c16.185,0,29.341,13.166,29.341,29.341
	c0,16.185-13.155,29.341-29.341,29.341H6.813c-0.408-1.724-0.805-3.459-1.17-5.204h57.741c13.312,0,24.137-10.825,24.137-24.137
	c0-13.312-10.825-24.137-24.137-24.137H45.756c-16.185,0-29.341-13.166-29.341-29.341s13.155-29.341,29.341-29.341h67.783v5.204
	H45.756C32.444,207.935,21.619,218.76,21.619,232.072z"/>
<path style="fill:#0087D2;" d="M179.87,227.882h62.023v-46.254h-74.417c-22.763,0-41.216,18.453-41.216,41.216v70.492
	c0,22.763,18.453,41.216,41.216,41.216h74.417v-46.255H179.87c-3.823,0-6.962-2.917-7.32-6.647h52.576v-46.254h-52.612v-0.159
	C172.515,231.175,175.807,227.882,179.87,227.882z"/>
<g>
	<path style="fill:#FFFFFF;" d="M241.893,314.026h-74.417c-11.409,0-20.691-9.282-20.691-20.691v-70.492
		c0-11.409,9.282-20.691,20.691-20.691h74.417v5.204h-74.417c-8.54,0-15.487,6.948-15.487,15.487v70.492
		c0,8.54,6.948,15.487,15.487,15.487h74.417V314.026z"/>
	<rect x="149.389" y="255.927" style="fill:#FFFFFF;" width="75.734" height="5.204"/>
</g>
<path style="fill:#0087D2;" d="M365.62,335.709h-72.372c-22.776,0-41.239-18.463-41.239-41.239v-71.892
	c0-22.776,18.463-41.239,41.239-41.239h72.371v46.833h-61.013c-3.184,0-5.764,2.581-5.764,5.764v49.176
	c0,3.184,2.581,5.764,5.764,5.764h14.18v-6.936h-14.452v-46.833h61.285L365.62,335.709L365.62,335.709z"/>
<path style="fill:#FFFFFF;" d="M344.805,314.894h-51.556c-11.262,0-20.425-9.162-20.425-20.424v-71.893
	c0-11.262,9.163-20.425,20.425-20.425h72.371v5.204h-72.371c-8.393,0-15.221,6.827-15.221,15.221v71.893
	c0,8.393,6.827,15.22,15.221,15.22h46.353v-48.565h-35.267v-5.204h40.471V314.894z"/>
<path style="fill:#0087D2;" d="M440.041,252.751l11.336,33.5h-22.671L440.041,252.751z M471.04,198.259
	c-4.493-13.302-16.959-22.235-31.002-22.235s-26.499,8.934-31.002,22.235l-46.508,137.446h49.445l15.799-46.697v46.968l71.576-0.272
	c3.239-9.885,5.893-20.041,7.91-30.417L471.04,198.259z"/>
<g>
	<path style="fill:#FFFFFF;" d="M495.575,335.71h-5.487L446.401,206.6c-1.139-3.359-4.03-4.556-6.36-4.556s-5.221,1.196-6.36,4.556
		l-43.688,129.11h-5.487l44.248-130.774c1.666-4.92,6.094-8.095,11.286-8.095c5.192,0,9.621,3.174,11.286,8.095L495.575,335.71z"/>
	<rect x="427.771" y="308.517" style="fill:#FFFFFF;" width="57.327" height="5.204"/>
</g>
<g>
</g>
<g>
</g>
<g>
</g>
<g>
</g>
<g>
</g>
<g>
</g>
<g>
</g>
<g>
</g>
<g>
</g>
<g>
</g>
<g>
</g>
<g>
</g>
<g>
</g>
<g>
</g>
<g>
</g>
</svg>
