<svg height="512pt" viewBox="0 0 512 512" width="512pt" xmlns="http://www.w3.org/2000/svg"><path d="m512 264.828125-50.503906-185.160156c-1.613282-5.925781-4.746094-11.332031-9.089844-15.675781l-28.683594-28.683594-57.378906 253.0625zm0 0" fill="#919d9e"/><path d="m0 264.828125 50.503906-185.160156c1.613282-5.925781 4.746094-11.332031 9.089844-15.675781l28.683594-28.683594v259.683594zm0 0" fill="#919d9e"/><path d="m476.691406 264.828125-211.863281 30.894531-229.519531-30.894531 26.484375-114.757813 4.0625-17.65625 4.058593-17.742187 4.0625-17.570313 4.148438-17.652343 4.058594-17.65625 6.09375-26.484375h335.445312zm0 0" fill="#586270"/><path d="m379.585938 40.863281v61.667969c-46.800782-7.238281-94.4375-7.238281-141.242188 0v-61.667969c-37.074219 16.417969-61.792969 45.3125-61.792969 78.308594 0 51.199219 59.285157 92.691406 132.414063 92.691406s132.414062-41.492187 132.414062-92.691406c0-32.996094-24.71875-61.890625-61.792968-78.308594zm0 0" fill="#919d9e"/><path d="m55.683594 176.550781-20.375 88.277344h114.761718l6.882813-68.855469c.5-4.964844-1.125-9.910156-4.472656-13.609375-3.347657-3.699219-8.101563-5.8125-13.09375-5.8125zm0 0" fill="#3a3e48"/><path d="m308.964844 176.550781c-68.421875 0-124.699219-29.414062-131.671875-67.089843-.484375 3.214843-.734375 6.460937-.742188 9.710937 0 51.199219 59.285157 92.691406 132.414063 92.691406s132.414062-41.492187 132.414062-92.691406c-.007812-3.265625-.253906-6.523437-.742187-9.753906-6.972657 37.71875-63.25 67.132812-131.671875 67.132812zm0 0" fill="#a5b4b4"/><path d="m379.585938 102.53125v-84.875c0-9.75-7.902344-17.65625-17.65625-17.65625h-105.929688c-9.75 0-17.65625 7.90625-17.65625 17.65625v84.875c46.804688-7.238281 94.441406-7.238281 141.242188 0zm0 0" fill="#3a3e48"/><path d="m79.449219 238.34375c-4.875 0-8.828125-3.949219-8.828125-8.828125v-17.652344c0-4.875 3.953125-8.828125 8.828125-8.828125s8.828125 3.953125 8.828125 8.828125v17.652344c0 4.878906-3.953125 8.828125-8.828125 8.828125zm0 0" fill="#c9ced1"/><path d="m114.757812 238.34375c-4.875 0-8.828124-3.949219-8.828124-8.828125v-17.652344c0-4.875 3.953124-8.828125 8.828124-8.828125s8.828126 3.953125 8.828126 8.828125v17.652344c0 4.878906-3.953126 8.828125-8.828126 8.828125zm0 0" fill="#c9ced1"/><g fill="#3a3e48"><path d="m105.929688 141.242188c0 4.875-3.949219 8.828124-8.828126 8.828124h-35.308593l4.0625-17.65625h31.246093c4.878907 0 8.828126 3.953126 8.828126 8.828126zm0 0"/><path d="m114.757812 105.929688c0 4.875-3.953124 8.828124-8.828124 8.828124h-35.308594c-.238282.015626-.480469-.015624-.707032-.085937l4.0625-17.570313h31.953126c4.875 0 8.828124 3.953126 8.828124 8.828126zm0 0"/><path d="m119.085938 70.621094c0 4.875-3.953126 8.828125-8.828126 8.828125h-32.132812l4.058594-17.65625h28.074218c4.875 0 8.828126 3.953125 8.828126 8.828125zm0 0"/></g><path d="m273.65625 0h70.621094v97.101562h-70.621094zm0 0" fill="#fe9189"/><path d="m273.65625 35.308594h70.621094v35.3125h-70.621094zm0 0" fill="#ed634c"/><path d="m397.242188 114.757812c-.722657 0-1.4375-.089843-2.136719-.265624-28.316407-5.984376-57.199219-8.855469-86.140625-8.5625-28.9375-.292969-57.824219 2.578124-86.140625 8.5625-3.085938.847656-6.390625-.042969-8.632813-2.328126-2.246094-2.289062-3.074218-5.609374-2.167968-8.679687.90625-3.074219 3.40625-5.414063 6.53125-6.117187 29.699218-6.402344 60.027343-9.453126 90.410156-9.089844 30.382812-.363282 60.710937 2.6875 90.414062 9.089844 4.320313 1.085937 7.15625 5.21875 6.613282 9.640624-.542969 4.421876-4.296876 7.746094-8.75 7.75zm0 0" fill="#3a3e48"/><path d="m238.34375 317.792969h-200.949219c-6.691406 0-12.804687-3.78125-15.792969-9.761719l-21.601562-43.203125h512l-21.601562 43.203125c-2.988282 5.980469-9.101563 9.761719-15.792969 9.761719zm0 0" fill="#3a3e48"/><path d="m273.65625 370.757812c-4.875 0-8.828125-3.953124-8.828125-8.828124v-61.792969c0-4.875 3.953125-8.828125 8.828125-8.828125s8.828125 3.953125 8.828125 8.828125v61.792969c0 4.875-3.953125 8.828124-8.828125 8.828124zm0 0" fill="#586270"/><path d="m273.65625 361.929688c-105.933594 0-141.242188 70.621093-141.242188 105.933593 0 35.308594 17.65625 44.136719 35.308594 44.136719 52.597656 0 61.792969-26.484375 105.933594-26.484375 44.136719 0 53.335938 26.484375 105.929688 26.484375 17.65625 0 35.3125-8.828125 35.3125-44.136719 0-35.3125-35.3125-105.933593-141.242188-105.933593zm0 0" fill="#3a3e48"/><path d="m220.691406 450.207031c0 14.625-11.859375 26.484375-26.484375 26.484375s-26.484375-11.859375-26.484375-26.484375 11.859375-26.484375 26.484375-26.484375 26.484375 11.859375 26.484375 26.484375zm0 0" fill="#586270"/><path d="m379.585938 450.207031c0 14.625-11.855469 26.484375-26.484376 26.484375-14.625 0-26.480468-11.859375-26.480468-26.484375s11.855468-26.484375 26.480468-26.484375c14.628907 0 26.484376 11.859375 26.484376 26.484375zm0 0" fill="#586270"/><path d="m282.484375 459.035156h-17.65625c-4.875 0-8.828125-3.953125-8.828125-8.828125s3.953125-8.828125 8.828125-8.828125h17.65625c4.875 0 8.824219 3.953125 8.824219 8.828125s-3.949219 8.828125-8.824219 8.828125zm0 0" fill="#f4cd1e"/><path d="m282.484375 423.722656h-17.65625c-4.875 0-8.828125-3.949218-8.828125-8.824218 0-4.878907 3.953125-8.828126 8.828125-8.828126h17.65625c4.875 0 8.824219 3.949219 8.824219 8.828126 0 4.875-3.949219 8.824218-8.824219 8.824218zm0 0" fill="#f4cd1e"/></svg>