<svg height="512pt" viewBox="0 0 512 512" width="512pt" xmlns="http://www.w3.org/2000/svg"><path d="m503.464844 418.132812c0 68.265626-17.066406 85.332032-59.730469 85.332032-4.78125 0-9.300781-.167969-13.570313-.59375-72.105468-5.890625-77.480468-59.136719-174.164062-59.136719-4.4375 0-8.703125.085937-12.800781.339844-89.769531 4.777343-93.355469 59.390625-174.933594 59.390625-4.019531.027344-8.035156-.171875-12.03125-.59375-33.878906-3.328125-47.699219-23.296875-47.699219-84.738282 0-66.644531 65.023438-165.71875 234.664063-170.496093 4.183593-.085938 8.449219-.171875 12.800781-.171875 179.199219 0 247.464844 102.402344 247.464844 170.667968zm0 0" fill="#354aa3"/><path d="m477.867188 418.132812c0 61.441407-13.824219 81.410157-47.703126 84.738282-72.105468-5.890625-77.480468-59.136719-174.164062-59.136719-4.4375 0-8.703125.085937-12.800781.339844-4.09375-.253907-8.363281-.339844-12.800781-.339844-96.679688 0-102.058594 53.246094-174.164063 59.136719-33.878906-3.328125-47.699219-23.296875-47.699219-84.738282 0-66.644531 65.023438-165.71875 234.664063-170.496093 169.644531 4.777343 234.667969 103.851562 234.667969 170.496093zm0 0" fill="#5068c1"/><path d="m196.265625 375.464844c0 32.992187-26.742187 59.734375-59.730469 59.734375-32.992187 0-59.734375-26.742188-59.734375-59.734375 0-32.988282 26.742188-59.730469 59.734375-59.730469 32.988282 0 59.730469 26.742187 59.730469 59.730469zm0 0" fill="#354aa3"/><path d="m435.199219 375.464844c0 32.992187-26.742188 59.734375-59.734375 59.734375-32.988282 0-59.730469-26.742188-59.730469-59.734375 0-32.988282 26.742187-59.730469 59.730469-59.730469 32.992187 0 59.734375 26.742187 59.734375 59.730469zm0 0" fill="#d7dee2"/><path d="m274.773438 202.914062c-.960938-8.648437-8.277344-15.191406-16.980469-15.179687h-3.585938c-8.703125-.011719-16.019531 6.53125-16.980469 15.179687l-5.027343 45.226563c7.742187-.390625 15.617187-.675781 23.800781-.675781s16.058594.285156 23.78125.703125zm0 0" fill="#354aa3"/><path d="m443.734375 512c-43.214844 0-66.425781-14.832031-88.867187-29.167969-28.632813-20.914062-63.425782-31.671875-98.867188-30.566406-35.441406-1.105469-70.234375 9.652344-98.867188 30.566406-22.441406 14.335938-45.652343 29.167969-88.867187 29.167969-50.398437 0-68.265625-24.558594-68.265625-93.867188 0-41.292968 22.230469-85.171874 59.484375-117.382812 32.605469-28.203125 93.167969-61.816406 196.515625-61.816406s163.910156 33.613281 196.515625 61.816406c37.296875 32.210938 59.484375 76.089844 59.484375 117.382812 0 69.308594-17.867188 93.867188-68.265625 93.867188zm-187.734375-76.800781c38.703125-1.109375 76.6875 10.589843 108.058594 33.28125 22.246094 14.183593 41.445312 26.453125 79.675781 26.453125 36.101563 0 51.199219-10.667969 51.199219-76.800782 0-62.683593-64.855469-162.132812-238.933594-162.132812-92.375 0-238.933594 44.015625-238.933594 162.132812 0 66.132813 15.097656 76.800782 51.199219 76.800782 38.230469 0 57.429687-12.269532 79.675781-26.453125 31.371094-22.691407 69.355469-34.390625 108.058594-33.28125zm0 0"/><path d="m136.535156 443.734375c-37.703125 0-68.269531-30.566406-68.269531-68.269531 0-37.699219 30.566406-68.265625 68.269531-68.265625 37.699219 0 68.265625 30.566406 68.265625 68.265625-.042969 37.6875-30.582031 68.226562-68.265625 68.269531zm0-119.46875c-28.277344 0-51.203125 22.925781-51.203125 51.199219 0 28.277344 22.925781 51.203125 51.203125 51.203125 28.273438 0 51.199219-22.925781 51.199219-51.203125-.027344-28.261719-22.9375-51.171875-51.199219-51.199219zm0 0"/><path d="m375.464844 443.734375c-37.699219 0-68.265625-30.566406-68.265625-68.269531 0-37.699219 30.566406-68.265625 68.265625-68.265625 37.703125 0 68.269531 30.566406 68.269531 68.265625-.042969 37.6875-30.582031 68.226562-68.269531 68.269531zm0-119.46875c-20.707032 0-39.375 12.476563-47.300782 31.609375-7.925781 19.128906-3.542968 41.152344 11.097657 55.796875 14.644531 14.640625 36.667969 19.023437 55.796875 11.097656 19.132812-7.925781 31.609375-26.59375 31.609375-47.304687-.03125-28.261719-22.9375-51.171875-51.203125-51.199219zm0 0"/><path d="m136.535156 409.601562c-4.714844 0-8.535156-3.820312-8.535156-8.535156v-51.199218c0-4.714844 3.820312-8.535157 8.535156-8.535157 4.710938 0 8.53125 3.820313 8.53125 8.535157v51.199218c0 4.714844-3.820312 8.535156-8.53125 8.535156zm0 0"/><path d="m162.132812 384h-51.199218c-4.714844 0-8.535156-3.820312-8.535156-8.535156 0-4.710938 3.820312-8.53125 8.535156-8.53125h51.199218c4.714844 0 8.535157 3.820312 8.535157 8.53125 0 4.714844-3.820313 8.535156-8.535157 8.535156zm0 0"/><path d="m273.066406 409.601562h-34.132812c-4.714844 0-8.535156-3.820312-8.535156-8.535156 0-4.710937 3.820312-8.53125 8.535156-8.53125h34.132812c4.714844 0 8.535156 3.820313 8.535156 8.53125 0 4.714844-3.820312 8.535156-8.535156 8.535156zm0 0"/><path d="m273.066406 375.464844h-34.132812c-4.714844 0-8.535156-3.820313-8.535156-8.53125 0-4.714844 3.820312-8.535156 8.535156-8.535156h34.132812c4.714844 0 8.535156 3.820312 8.535156 8.535156 0 4.710937-3.820312 8.53125-8.535156 8.53125zm0 0"/><path d="m358.398438 375.464844c0 4.714844-3.820313 8.535156-8.53125 8.535156-4.714844 0-8.535157-3.820312-8.535157-8.535156 0-4.710938 3.820313-8.53125 8.535157-8.53125 4.710937 0 8.53125 3.820312 8.53125 8.53125zm0 0"/><path d="m384 349.867188c0 4.710937-3.820312 8.53125-8.535156 8.53125-4.710938 0-8.53125-3.820313-8.53125-8.53125 0-4.714844 3.820312-8.535157 8.53125-8.535157 4.714844 0 8.535156 3.820313 8.535156 8.535157zm0 0"/><path d="m384 401.066406c0 4.714844-3.820312 8.535156-8.535156 8.535156-4.710938 0-8.53125-3.820312-8.53125-8.535156 0-4.710937 3.820312-8.53125 8.53125-8.53125 4.714844 0 8.535156 3.820313 8.535156 8.53125zm0 0"/><path d="m409.601562 375.464844c0 4.714844-3.820312 8.535156-8.535156 8.535156-4.710937 0-8.53125-3.820312-8.53125-8.535156 0-4.710938 3.820313-8.53125 8.53125-8.53125 4.714844 0 8.535156 3.820312 8.535156 8.53125zm0 0"/><path d="m256 196.265625c-4.710938 0-8.535156-3.820313-8.535156-8.53125v-25.601563c.03125-23.550781 19.117187-42.636718 42.667968-42.667968h17.066407c14.140625 0 25.601562-11.460938 25.601562-25.597656v-8.535157c0-14.136719-11.460937-25.597656-25.601562-25.597656h-17.066407c-23.550781-.027344-42.636718-19.117187-42.667968-42.667969v-8.53125c0-4.714844 3.824218-8.535156 8.535156-8.535156s8.535156 3.820312 8.535156 8.535156v8.53125c0 14.140625 11.460938 25.601563 25.597656 25.601563h17.066407c23.554687.027343 42.640625 19.113281 42.667969 42.664062v8.535157c-.027344 23.550781-19.113282 42.636718-42.667969 42.667968h-17.066407c-14.136718 0-25.597656 11.460938-25.597656 25.597656v25.601563c0 4.710937-3.824218 8.53125-8.535156 8.53125zm0 0"/><path d="m279.78125 256.699219h-.460938c-15.53125-.929688-31.109374-.929688-46.640624 0-2.511719.15625-4.960938-.820313-6.675782-2.660157-1.722656-1.832031-2.554687-4.328124-2.269531-6.828124l5.035156-45.226563c1.4375-12.96875 12.390625-22.78125 25.4375-22.785156h3.585938c13.042969.003906 23.996093 9.8125 25.4375 22.777343l5.035156 45.226563c.269531 2.414063-.503906 4.828125-2.121094 6.636719-1.621093 1.808594-3.933593 2.84375-6.363281 2.84375zm-23.78125-17.765625c4.566406 0 9.214844.085937 14.199219.253906l-3.960938-35.324219c-.476562-4.3125-4.109375-7.578125-8.445312-7.597656h-3.585938c-4.34375.003906-7.996093 3.277344-8.472656 7.597656l-3.933594 35.324219c4.984375-.167969 9.632813-.253906 14.199219-.253906zm0 0"/></svg>