<svg width="306.773" height="306.773" xmlns="http://www.w3.org/2000/svg">

 <g>
  <title>background</title>
  <rect fill="none" id="canvas_background" height="402" width="582" y="-1" x="-1"/>
 </g>
 <g>
  <title>Layer 1</title>
  <g id="svg_1">
   <path stroke-width="0" id="svg_2" fill="#ffffff" d="m302.930198,161.794c5.561,-6.116 5.024,-15.49 -1.199,-20.932l-137.101,-119.964c-6.223,-5.442 -16.2,-5.328 -22.292,0.257l-137.567,126.103c-6.092,5.585 -6.391,14.947 -0.662,20.902l3.449,3.592c5.722,5.955 14.971,6.665 20.645,1.581l10.281,-9.207l0,134.792c0,8.27 6.701,14.965 14.965,14.965l53.624,0c8.264,0 14.965,-6.695 14.965,-14.965l0,-94.3l68.398,0l0,94.3c-0.119,8.264 5.794,14.959 14.058,14.959l56.828,0c8.264,0 14.965,-6.695 14.965,-14.965l0,-132.888c0,0 2.84,2.488 6.343,5.567c3.497,3.073 10.842,0.609 16.403,-5.513l3.897,-4.284z"/>
  </g>
  <g id="svg_3"/>
  <g id="svg_4"/>
  <g id="svg_5"/>
  <g id="svg_6"/>
  <g id="svg_7"/>
  <g id="svg_8"/>
  <g id="svg_9"/>
  <g id="svg_10"/>
  <g id="svg_11"/>
  <g id="svg_12"/>
  <g id="svg_13"/>
  <g id="svg_14"/>
  <g id="svg_15"/>
  <g id="svg_16"/>
  <g id="svg_17"/>
 </g>
</svg>