<svg width="250.313" height="250.313" xmlns="http://www.w3.org/2000/svg">

 <g>
  <title>background</title>
  <rect fill="none" id="canvas_background" height="402" width="582" y="-1" x="-1"/>
 </g>
 <g>
  <title>Layer 1</title>
  <g id="Search">
   <path fill="#ffffff" id="svg_1" fill-rule="evenodd" clip-rule="evenodd" d="m245.186,216.604l-54.379,-54.378c-0.289,-0.289 -0.628,-0.491 -0.93,-0.76c10.7,-16.231 16.945,-35.66 16.945,-56.554c0,-56.837 -46.075,-102.912 -102.911,-102.912s-102.911,46.075 -102.911,102.911c0,56.835 46.074,102.911 102.91,102.911c20.895,0 40.323,-6.245 56.554,-16.945c0.269,0.301 0.47,0.64 0.759,0.929l54.38,54.38c8.169,8.168 21.413,8.168 29.583,0c8.168,-8.169 8.168,-21.413 0,-29.582zm-141.275,-44.458c-37.134,0 -67.236,-30.102 -67.236,-67.235c0,-37.134 30.103,-67.236 67.236,-67.236c37.132,0 67.235,30.103 67.235,67.236c0,37.133 -30.103,67.235 -67.235,67.235z"/>
  </g>
  <g id="svg_2"/>
  <g id="svg_3"/>
  <g id="svg_4"/>
  <g id="svg_5"/>
  <g id="svg_6"/>
  <g id="svg_7"/>
  <g id="svg_8"/>
  <g id="svg_9"/>
  <g id="svg_10"/>
  <g id="svg_11"/>
  <g id="svg_12"/>
  <g id="svg_13"/>
  <g id="svg_14"/>
  <g id="svg_15"/>
  <g id="svg_16"/>
 </g>
</svg>